<svg id="visual" viewBox="0 0 900 600" width="900" height="600" xmlns="http://www.w3.org/2000/svg" xmlns:xlink="http://www.w3.org/1999/xlink" version="1.1"><rect x="0" y="0" width="900" height="600" fill="#FFFFFF"></rect><defs><linearGradient id="grad1_0" x1="33.3%" y1="0%" x2="100%" y2="100%"><stop offset="20%" stop-color="#ffffff" stop-opacity="1"></stop><stop offset="80%" stop-color="#ffffff" stop-opacity="1"></stop></linearGradient></defs><defs><linearGradient id="grad2_0" x1="0%" y1="0%" x2="66.7%" y2="100%"><stop offset="20%" stop-color="#ffffff" stop-opacity="1"></stop><stop offset="80%" stop-color="#ffffff" stop-opacity="1"></stop></linearGradient></defs><g transform="translate(900, 0)"><path d="M0 486.7C-58.1 452.4 -116.3 418.1 -158 381.6C-199.8 345.1 -225.3 306.4 -277.9 277.9C-330.5 249.4 -410.4 230.9 -449.7 186.3C-489 141.6 -487.9 70.8 -486.7 0L0 0Z" fill="#7e57d1"></path></g><g transform="translate(0, 600)"><path d="M0 -486.7C71.8 -487.7 143.5 -488.6 186.3 -449.7C229 -410.8 242.8 -332 285 -285C327.1 -238 397.7 -222.8 436.1 -180.6C474.4 -138.4 480.6 -69.2 486.7 0L0 0Z" fill="#7e57d1"></path></g></svg>